<?xml version="1.0" encoding="utf-8"?>
<!-- Generator: Adobe Illustrator 25.4.1, SVG Export Plug-In . SVG Version: 6.00 Build 0)  -->
<svg version="1.1" id="arrow-up" xmlns="http://www.w3.org/2000/svg" xmlns:xlink="http://www.w3.org/1999/xlink" x="0px" y="0px"
	 viewBox="0 0 24 24" style="enable-background:new 0 0 24 24;" xml:space="preserve">
<style type="text/css">
	.st0{fill:#DE1736;}
	.st1{fill:#F7F7F7;}
</style>
<circle class="st0" cx="12" cy="12" r="12"/>
<path class="st1" d="M16.8,11.4l-4.2-4.2C12.5,7.1,12.4,7,12.3,7c-0.2-0.1-0.4-0.1-0.6,0c-0.1,0-0.2,0.1-0.3,0.2l-4.2,4.2
	c-0.3,0.3-0.3,0.9,0,1.2s0.9,0.3,1.2,0l0,0l2.8-2.8v6.4c0,0.5,0.4,0.8,0.8,0.8s0.8-0.4,0.8-0.8V9.8l2.8,2.8c0.3,0.3,0.9,0.3,1.2,0
	c0,0,0,0,0,0C17.2,12.3,17.2,11.7,16.8,11.4C16.8,11.4,16.8,11.4,16.8,11.4z"/>
</svg>
