<?xml version="1.0" encoding="utf-8"?>
<!-- Generator: Adobe Illustrator 25.4.1, SVG Export Plug-In . SVG Version: 6.00 Build 0)  -->
<svg version="1.1" id="Layer_1" xmlns="http://www.w3.org/2000/svg" xmlns:xlink="http://www.w3.org/1999/xlink" x="0px" y="0px"
	 viewBox="0 0 800 800" style="enable-background:new 0 0 800 800;" xml:space="preserve">
<style type="text/css">
	.st0{fill:#001E36;}
	.st1{fill:#31A8FF;}
</style>
<circle class="st0" cx="400" cy="400" r="400"/>
<g>
	<path class="st1" d="M236.8,538.9V282.8c0-1.7,0.7-2.8,2.4-2.8c25,0,50.2-1.5,75.2-1.5c40.7,0,84.7,13.9,100.2,56.5
		c3.6,10.5,5.6,21.2,5.6,32.3c0,21.4-4.9,39.1-14.6,53c-27.1,38.9-74.1,38.3-116.2,38.3v79.9c0.4,2.3-1.7,3.5-3.6,3.5h-46.1
		C237.8,542.1,236.8,541.2,236.8,538.9z M289.7,328.1v83.6c16.7,1.2,34.2,1.4,50.2-4c17.7-5.1,27.4-20.5,27.4-38.8
		c0.5-15.7-8-30.7-22.6-36.3C329,326,306.8,325.6,289.7,328.1z"/>
	<path class="st1" d="M571.6,395.2c-7.4-3.9-15.1-6.7-23.2-8.4c-10.4-2.5-51.3-11-51.4,10.4c0.4,11.9,19.4,17.8,27.7,21.3
		c29.5,10.1,62.7,28.2,62.1,64.5c0.9,45.2-42.9,63.3-80.5,63.3c-19.6,0.2-39.9-2.8-57.8-11.2c-1.7-0.9-2.8-2.8-2.8-4.8V487
		c-0.2-1.7,1.7-3.3,3.1-2c17.5,10.6,38.3,15.7,58.6,16c9,0,26.7-0.9,26.6-14c0-12.6-21.3-18.4-29.7-21.6
		c-12.3-4.4-23.9-10.4-34.6-18.1c-14.9-10.6-24.3-27.7-24-46.4c-0.1-42.6,40.3-61.7,76.6-61.7c17-0.1,35.2,1.1,51,8
		c2.3,0.7,2.8,3.1,2.8,5.2v40.5C576.3,395.3,573.5,396.2,571.6,395.2z"/>
</g>
</svg>
