<?xml version="1.0" encoding="utf-8"?>
<!-- Generator: Adobe Illustrator 25.4.1, SVG Export Plug-In . SVG Version: 6.00 Build 0)  -->
<svg version="1.1" id="Layer_1" xmlns="http://www.w3.org/2000/svg" xmlns:xlink="http://www.w3.org/1999/xlink" x="0px" y="0px"
	 viewBox="0 0 800 800" style="enable-background:new 0 0 800 800;" xml:space="preserve">
<style type="text/css">
	.st0{fill:#330000;}
	.st1{fill:#FF9A00;}
</style>
<path class="st0" d="M0,289.5c0-101.3,0-152,19.7-190.7c17.3-34,45-61.7,79.1-79.1C137.5,0,188.2,0,289.5,0h221
	c101.3,0,152,0,190.7,19.7c34,17.3,61.7,45,79.1,79.1C800,137.5,800,188.2,800,289.5v221c0,101.3,0,152-19.7,190.7
	c-17.3,34-45,61.7-79.1,79.1C662.5,800,611.8,800,510.5,800h-221c-101.3,0-152,0-190.7-19.7c-34-17.3-61.7-45-79.1-79.1
	C0,662.5,0,611.8,0,510.5V289.5z"/>
<path class="st1" d="M387.7,502.8h-124l-25.2,80.4c-0.7,3-3.4,5.1-6.4,5h-62.8c-3.6,0-4.8-2-3.8-6.1l107.3-317
	c1.1-3.3,2.1-7.1,3.2-11.3c1.4-7.3,2.1-14.8,2.1-22.3c-0.3-2.2,1.6-4.2,3.8-3.9h85.3c2.5,0,3.9,0.9,4.3,2.8l121.8,352.3
	c1.1,3.7,0,5.5-3.2,5.5h-69.8c-2.4,0.3-4.8-1.4-5.4-3.9L387.7,502.8z M283,433.4h84.8c-13.9-47.6-29.7-94.6-42.4-142.6
	C311.7,338.9,296.7,386.8,283,433.4z"/>
<path class="st1" d="M565.8,285.9c-5.5,0.2-10.9-0.7-16-2.8c-5.1-2.1-9.7-5.3-13.5-9.3c-3.8-4.2-6.8-9.1-8.7-14.5
	c-1.9-5.4-2.8-11.1-2.6-16.8c-0.2-5.7,0.8-11.3,2.9-16.6c2.1-5.3,5.2-10,9.2-14c4-3.9,8.6-6.9,13.7-9c5.1-2,10.6-3,16-2.9
	c12.9,0,23,3.9,30.3,11.8c3.7,4.1,6.6,8.9,8.5,14.2c1.9,5.2,2.7,10.8,2.5,16.4c0.2,5.8-0.7,11.5-2.7,16.9c-2,5.4-5,10.3-8.9,14.5
	c-4,4.1-8.9,7.3-14.2,9.4C577.2,285.2,571.5,286.2,565.8,285.9z M528.8,582.6V319.5c0-3.3,1.4-5,4.3-5h66c2.9,0,4.3,1.7,4.3,5v263.1
	c0,3.7-1.4,5.5-4.3,5.5h-65.5C530.4,588.1,528.8,586.2,528.8,582.6z"/>
</svg>
