<?xml version="1.0" encoding="utf-8"?>
<!-- Generator: Adobe Illustrator 25.4.1, SVG Export Plug-In . SVG Version: 6.00 Build 0)  -->
<svg version="1.1" id="Layer_1" xmlns="http://www.w3.org/2000/svg" xmlns:xlink="http://www.w3.org/1999/xlink" x="0px" y="0px"
	 viewBox="0 0 800 800" style="enable-background:new 0 0 800 800;" xml:space="preserve">
<style type="text/css">
	.st0{fill:#330000;}
	.st1{fill:#FF9A00;}
</style>
<circle class="st0" cx="400" cy="400" r="400"/>
<g>
	<path class="st1" d="M387.5,480h-98l-19.9,63.5c-0.6,2.4-2.7,4-5.1,4h-49.6c-2.8,0-3.8-1.6-3-4.8l84.8-250.5
		c0.9-2.6,1.7-5.6,2.5-8.9c1.1-5.8,1.7-11.7,1.7-17.6c-0.2-1.7,1.3-3.3,3-3.1h67.4c2,0,3.1,0.7,3.4,2.2l96.2,278.4
		c0.9,2.9,0,4.3-2.5,4.3h-55.2c-1.9,0.2-3.8-1.1-4.3-3.1L387.5,480z M304.8,425.2h67c-11-37.6-23.5-74.7-33.5-112.7
		C327.4,350.5,315.6,388.3,304.8,425.2z"/>
	<path class="st1" d="M528.2,308.6c-4.3,0.2-8.6-0.6-12.6-2.2c-4-1.7-7.7-4.2-10.7-7.3c-3-3.3-5.4-7.2-6.9-11.5s-2.2-8.8-2.1-13.3
		c-0.2-4.5,0.6-8.9,2.3-13.1c1.7-4.2,4.1-7.9,7.3-11.1c3.2-3.1,6.8-5.5,10.8-7.1c4-1.6,8.4-2.4,12.6-2.3c10.2,0,18.2,3.1,23.9,9.3
		c2.9,3.2,5.2,7,6.7,11.2c1.5,4.1,2.1,8.5,2,13c0.2,4.6-0.6,9.1-2.1,13.4c-1.6,4.3-4,8.1-7,11.5c-3.2,3.2-7,5.8-11.2,7.4
		C537.2,308.1,532.7,308.8,528.2,308.6z M499,543V335.2c0-2.6,1.1-4,3.4-4h52.1c2.3,0,3.4,1.3,3.4,4V543c0,2.9-1.1,4.3-3.4,4.3
		h-51.8C500.2,547.4,499,545.9,499,543z"/>
</g>
</svg>
