<svg xmlns="http://www.w3.org/2000/svg" viewBox="0 0 517.81 161.46"><defs><style>.cls-1{fill:#e6e6e6;}.cls-2{fill:#de1736;}</style></defs><g id="Layer_2" data-name="Layer 2"><g id="Layer_1-2" data-name="Layer 1"><path class="cls-1" d="M225.26,11.25a33.4,33.4,0,0,1,10.16,24.48A33.81,33.81,0,0,1,232.86,49a35,35,0,0,1-7.6,11.1,33.26,33.26,0,0,1-24.38,10.17h-24V1.18h24A33.21,33.21,0,0,1,225.26,11.25Zm-35.14,3.06V57.15h10.76A20.41,20.41,0,0,0,216,50.83a20.54,20.54,0,0,0,6.22-15.1A20.87,20.87,0,0,0,216,20.53a20.55,20.55,0,0,0-15.1-6.22Z"/><path class="cls-1" d="M245.89,1.18H290.4V14.31H259.11V28.82h24.58V42H259.11v15.2H290.5V70.28H245.89Z"/><path class="cls-1" d="M336.79,4.05a18.52,18.52,0,0,1,7.7,10.36l-12.73,3.65a6,6,0,0,0-2.87-3.65,11.1,11.1,0,0,0-5.52-1.28,10.41,10.41,0,0,0-6.52,2,6,6,0,0,0-2.46,5,5.34,5.34,0,0,0,1.87,4.14c1.64,1.38,4.31,2.4,8,3.06q10.08,1.68,16.49,7.3t6.42,14.71a20.6,20.6,0,0,1-6.92,15.7,23.9,23.9,0,0,1-16.87,6.41A24.43,24.43,0,0,1,309,67a20.43,20.43,0,0,1-8.49-11.35l12.73-3.55a8,8,0,0,0,3.65,4.44,11.83,11.83,0,0,0,6.52,1.77,11.68,11.68,0,0,0,7.6-2.56,8,8,0,0,0,3-6.42,7.36,7.36,0,0,0-2.77-5.82q-3.06-2.47-8.78-3.46a32.12,32.12,0,0,1-15.2-6.61q-6-4.83-6-13.32a18.77,18.77,0,0,1,1.63-7.85,19.61,19.61,0,0,1,4.78-6.47A22.67,22.67,0,0,1,323.37,0,22.93,22.93,0,0,1,336.79,4.05Z"/><path class="cls-1" d="M358.11,1.18h13.23v69.1H358.11Z"/><path class="cls-1" d="M423.85.69a34.48,34.48,0,0,1,6.71,2.07,46.18,46.18,0,0,1,6,3.41,27.31,27.31,0,0,1,5.23,4.59L432.53,20a21.14,21.14,0,0,0-15.79-6.91,20.29,20.29,0,0,0-15.5,6.71A22.17,22.17,0,0,0,395,35.73a22.52,22.52,0,0,0,6.21,16,21.38,21.38,0,0,0,31.2-.3,18.29,18.29,0,0,0,3-4.14,19.71,19.71,0,0,0,1.77-4.94H419.5V29.12h32.18v6.61a35,35,0,0,1-10,25.07,30.94,30.94,0,0,1-5.23,4.54,35.55,35.55,0,0,1-6,3.36,34.81,34.81,0,0,1-13.72,2.76A33.15,33.15,0,0,1,391.87,61,35.1,35.1,0,0,1,381.8,35.73,35.08,35.08,0,0,1,392,10.36,33.16,33.16,0,0,1,416.74,0,36.32,36.32,0,0,1,423.85.69Z"/><path class="cls-1" d="M474.38,1.18l30.21,45.11V1.18h13.22v69.1H504.59L474.38,25.17V70.28H461.16V1.18Z"/><path class="cls-1" d="M202.46,91.18a18.91,18.91,0,0,1,13.91,5.73,19.14,19.14,0,0,1,5.73,13.92,18.21,18.21,0,0,1-4.34,11.94,19.57,19.57,0,0,1,6.51,7.21,20,20,0,0,1,2.37,9.57,20.9,20.9,0,0,1-20.73,20.73h-29V91.18ZM190.12,118h11a8.16,8.16,0,0,0,5.53-1.87,6.7,6.7,0,0,0,0-9.87,8.16,8.16,0,0,0-5.53-1.88h-11Zm0,29h14.8a8.34,8.34,0,0,0,6-2.27,7.66,7.66,0,0,0,0-11.25,8.38,8.38,0,0,0-6-2.27h-14.8Z"/><path class="cls-1" d="M237.69,91.18h44.52v13.13H250.92v14.51H275.5V132H250.92v15.2h31.39v13.13H237.69Z"/><path class="cls-1" d="M309,91.18l30.2,45.11V91.18h13.23v69.1H339.16L309,115.17v45.11H295.73V91.18Z"/><path class="cls-1" d="M405,90.74a34.45,34.45,0,0,1,6.61,2.12,32.35,32.35,0,0,1,11.25,7.9L413.58,110a21,21,0,0,0-15.69-6.91,20.58,20.58,0,0,0-15.6,6.71,22.87,22.87,0,0,0-4.64,7.25,23.4,23.4,0,0,0-1.57,8.64,23.66,23.66,0,0,0,1.57,8.74,22.87,22.87,0,0,0,4.64,7.25,20.7,20.7,0,0,0,15.6,6.61,20.28,20.28,0,0,0,15.59-6.91l9.38,9.38a38.33,38.33,0,0,1-5.28,4.44,34,34,0,0,1-6,3.36,34.81,34.81,0,0,1-38.89-7.8,37.27,37.27,0,0,1-7.35-11.45,37.93,37.93,0,0,1,0-27.19,37.14,37.14,0,0,1,7.35-11.5A33.38,33.38,0,0,1,397.89,90,34.17,34.17,0,0,1,405,90.74Z"/><path class="cls-1" d="M432.33,91.09h13.23v27.34h31V91.18h13.13v69.1H476.55V131.55h-31v28.73H432.33Z"/><path class="cls-2" d="M158.92,77.92c-1.64-42.09-35.66-74.37-77.8-76.34L41.37,1.09l-.95,79.54a40.41,40.41,0,0,0,.37,4.58,77.69,77.69,0,0,0-20.22-7.37l.92-77L1.61.64.71,76.16.47,96.05C1.82,96,3.2,95.94,4.59,96a72,72,0,0,1,19.57,3.78,55.88,55.88,0,0,1,35.71,36.58,61.75,61.75,0,0,1,2.77,17.23c0,.35,0,.71,0,1.08,0,1.91-.1,3.85-.28,5.77l12.29.15,4.58.05c1.38,0,2.74-.09,4.1-.18a87.8,87.8,0,0,0,11.91-1.7,83,83,0,0,0,19.12-6.62l1.08-.54A79.89,79.89,0,0,0,149.87,118h0a77.84,77.84,0,0,0,7.38-20.22A79.08,79.08,0,0,0,159,82C159,80.64,159,79.27,158.92,77.92Zm-19.8,3.86a71.88,71.88,0,0,1-3.78,19.57,55.87,55.87,0,0,1-36.6,35.71,60.72,60.72,0,0,1-17.22,2.77,82.78,82.78,0,0,0-6.62-19.11c-.16-.37-.36-.74-.53-1.09l.54.08c14.09,2.06,29.24-3.33,38.67-18.35a38.18,38.18,0,0,0,5.5-23.92C117.2,58.75,101.85,42.22,80.65,42l-.24,19.86A19.73,19.73,0,0,1,99.65,77.22a17.94,17.94,0,0,1,.41,4.1c-.8,14.87-14,20.9-24.91,18.3-7.83-1.86-14.53-8.14-14.85-18.75L61,21.22l19.89.24c30.89,1.45,56.49,25.4,58.14,56.22C139.12,79,139.15,80.41,139.12,81.78Z"/><path class="cls-2" d="M42.51,160.18l-20.12-.25C25,149,19,135.81,4.13,135a19.35,19.35,0,0,0-4.13.42L.24,116a38.17,38.17,0,0,1,23.93,5.49C39.19,130.93,44.58,146.09,42.51,160.18Z"/></g></g></svg>